<svg xmlns="http://www.w3.org/2000/svg" viewBox="0 0 159.89 35.97"><defs><style>.cls-1{fill:#e60012;}.cls-2{fill-rule:evenodd;}</style></defs><g id="レイヤー_2" data-name="レイヤー 2"><g id="Ebene_1" data-name="Ebene 1"><polygon points="126.2 14.33 141.17 26.26 141.17 20.61 159.89 20.61 159.89 14.32 126.2 14.33 126.2 14.33"/><polygon class="cls-1" points="159.89 11.93 144.92 0 144.92 5.64 100.02 5.64 100.02 11.93 159.89 11.93 159.89 11.93"/><path d="M76,30.31a9.73,9.73,0,0,0,3.64-.78l-1.82,6.1a15.3,15.3,0,0,1-3,.34C68.8,36,64,32.26,64,24.68,64,17.56,69,14,74.8,14a20.88,20.88,0,0,1,4.91.66v5.6a10.17,10.17,0,0,0-3.46-.79c-3,0-5.17,1.86-5.17,5.32,0,3.65,2.07,5.51,4.94,5.51Z"/><path class="cls-2" d="M79.85,35.6h6.9L87.86,31h5.85L94.9,35.6h7.26L95.72,14.37H86.18L79.85,35.6Zm11-16.67h0l2,7h-4l2-7Z"/><path d="M22,32.63a3.91,3.91,0,0,1-1.7.43c-1.24,0-1.73-.72-1.73-2.62V20.58H22V18.35H18.57V12.46H15.81v5.89H13.16v2.23h2.65V31.32c0,3,1.35,4,3.87,4A7.63,7.63,0,0,0,22,34.86V32.63Z"/><polygon points="0 35.27 11.07 35.27 11.07 32.78 2.88 32.78 2.88 24.66 10.29 24.66 10.29 22.17 2.88 22.17 2.88 14.9 10.64 14.9 10.64 12.41 0 12.41 0 35.27 0 35.27"/><path d="M24.33,35.27h2.75V25.22c0-3,1.37-4.52,3.53-4.52,1.77,0,2.76,1.15,2.76,3.8V35.27h2.75V23.68c0-3.67-2-5.34-4.88-5.34a4.53,4.53,0,0,0-4.1,2.52h-.06v-8.4H24.33V35.27Z"/><path class="cls-2" d="M51.6,27.74V26.27c0-4.92-2.1-7.93-5.86-7.93-4.16,0-6.46,3.34-6.46,8.58S41.58,35.5,46,35.5a11.31,11.31,0,0,0,4.68-1L50.55,32a7.12,7.12,0,0,1-3.83,1.38c-3,0-4.55-1.8-4.55-5.67Zm-9.43-2.1c.06-3.89,1.63-5.2,3.4-5.2,2.2,0,3.28,1.73,3.28,5.2Z"/><path d="M54.63,35.27h2.75V26.43C57.38,22.8,58.89,21,61,21a5.13,5.13,0,0,1,1,.1V18.34c-2.46,0-3.87.82-4.75,2.85h-.07l-.09-2.62H54.5c0,1.18.13,2.39.13,3.6v13.1Z"/><path class="cls-2" d="M120,31.38h.58c.34,0,.72.07.72.49s-.34.52-.73.52H120v-1Zm-.66,3H120V32.89h.39l.92,1.52h.67l-1-1.54a.89.89,0,0,0,.93-.95c0-.75-.46-1-1.31-1H119.3v3.53Zm1.2.76a2.51,2.51,0,1,1,2.36-2.51,2.4,2.4,0,0,1-2.36,2.51Zm0,.61a3.12,3.12,0,1,0-3.12-3.12,3.12,3.12,0,0,0,3.12,3.12Z"/><polygon points="100.02 14.32 122.47 14.32 122.47 20.61 114.71 20.61 114.71 35.58 107.78 35.58 107.78 20.61 100.02 20.61 100.02 14.32 100.02 14.32"/></g></g></svg>